<?xml version="1.0" encoding="utf-8"?>
<!-- Generator: Adobe Illustrator 16.0.0, SVG Export Plug-In . SVG Version: 6.00 Build 0)  -->
<!DOCTYPE svg PUBLIC "-//W3C//DTD SVG 1.1//EN" "http://www.w3.org/Graphics/SVG/1.1/DTD/svg11.dtd">
<svg version="1.1" id="Layer_1" xmlns="http://www.w3.org/2000/svg" xmlns:xlink="http://www.w3.org/1999/xlink" x="0px" y="0px"
	 width="572px" height="540px" viewBox="0 0 572 540" enable-background="new 0 0 572 540" xml:space="preserve">
<g>
	<path fill-rule="evenodd" clip-rule="evenodd" fill="#7A5C2C" d="M338.541,160.774c2.275,2.467,4.74,4.788,6.781,7.436
		c2.639,3.42,1.818,6.822-0.998,9.778c-2.715,2.849-6.258,4.707-9.67,2.134c-16.781-12.65-36.966-8.697-55.695-11.644
		c-5.66-0.891-11.524-0.719-17.186-2.017c-2.786-1.795-5.573-3.594-8.36-5.392c-2.309-10.329-0.421-16.143,6.227-19.196
		c3.187-1.463,6.097-1.73,7.908,2.02c2.404,4.982,6.96,7.141,11.746,8.875c10.522,3.814,21.284,5.519,32.54,4.06
		c9.232-1.196,18.169,0.631,26.797,4.013L338.541,160.774z"/>
	<path fill-rule="evenodd" clip-rule="evenodd" fill="#7A5C2C" d="M252.414,164.07c2.787,1.798,5.574,3.597,8.36,5.392
		c8.186,6.225,18.273,5.217,27.571,6.864c8.009,1.421,16.301,1.263,24.469,1.801c1.201,0.081,2.433,0.021,3.602,0.263
		c4.484,0.927,10.821,1.808,10.801,6.583c-0.02,5.118-6.469,3.092-10.174,3.803c-17.063,3.274-34.155,1.057-51.11-0.729
		c-10.623-1.119-20.475-5.455-28.244-13.357c-3.427-3.485-5.009-7.618-3.856-12.536c0.802-3.42,2.023-6.542,6.095-7.17
		c3.708-0.572,6.55,0.64,8.556,3.962C249.589,160.776,251.09,162.369,252.414,164.07z"/>
	<path fill-rule="evenodd" clip-rule="evenodd" fill="#7A5C2C" d="M339.631,159.842c-4.783-5.581-11.134-7.026-18.132-7.232
		c-12.942-0.383-26.062,1.73-38.743-2.496c-2.718-0.905-5.605-1.728-7.93-3.301c-5.138-3.479-4.624-9.034,0.825-12.052
		c0.209-0.116,0.483-0.151,0.65-0.307c7.902-7.32,15.159-8.452,24.135-0.489c5.164,4.583,13.148,5.544,20.256,7.094
		c8.373,1.826,16.023,5.309,21.729,12.038c3.374,3.979,2.926,6.543-2.88,6.677L339.631,159.842z"/>
	<path fill-rule="evenodd" clip-rule="evenodd" fill="#B78B4B" d="M340.151,195.594c4.136-0.034,5.585,1.545,4.271,5.84
		c-4.639,15.146-9.062,42.357-13.5,57.56c-0.97,3.317-2.971,5.035-6.36,4.15c-3.36-0.879-2.509-3.704-1.975-5.97
		c3.571-15.171,7.226-42.323,10.887-57.472C334.324,196.185,337.047,195.532,340.151,195.594z"/>
	<path fill-rule="evenodd" clip-rule="evenodd" fill="#B78B4B" d="M258.461,259.596c-0.298,3.435-2.472,3.574-5.008,2.308
		c-1.825-0.91-2.325-2.981-2.98-4.766c-5.199-14.18-10.408-40.354-15.487-54.576c-0.821-2.3-2.555-5.385,1.336-6.6
		c3.188-0.995,6.443-0.554,7.629,3.289c4.809,15.564,9.496,43.162,14.217,58.751C258.307,258.457,258.344,258.943,258.461,259.596z"
		/>
	<path fill-rule="evenodd" clip-rule="evenodd" fill="#B78B4B" d="M294.261,223.937c0,7.218,0.051,26.434-0.028,33.65
		c-0.025,2.376,0.084,5.198-3.289,5.447c-3.81,0.283-4.022-2.639-4.204-5.368c-0.943-14.143-1.922-40.284-2.76-54.435
		c-0.196-3.32-0.61-7.176,4.427-7.453c5.198-0.282,5.693,3.391,5.721,7.236c0.054,6.975,0.016,13.951,0.016,20.923
		C294.184,223.937,294.222,223.937,294.261,223.937z"/>
	<path fill-rule="evenodd" clip-rule="evenodd" fill="#B78B4B" d="M298.493,247.944c1.141-9.84,1.404-33.596,1.476-45.363
		c0.023-4.083,1.25-7.357,6.186-6.78c5.055,0.593,4.078,4.478,3.682,7.772c-1.599,13.341-1.231,38.859-3.689,52.121
		c-0.539,2.921,0.33,7.337-4.065,7.148c-5.018-0.218-3.2-4.922-3.554-7.973C298.335,253.21,298.493,251.513,298.493,247.944z"/>
	<path fill-rule="evenodd" clip-rule="evenodd" fill="#B78B4B" d="M310.436,256.375c2.024-14.106,4.045-40.348,6.122-54.582
		c0.525-3.605,1.778-6.679,6.34-6.057c4.907,0.669,3.679,4.452,3.169,7.28c-2.553,14.163-5.326,40.284-8.084,54.41
		c-0.512,2.627-1.175,5.585-4.844,4.907C309.844,261.72,310.515,258.878,310.436,256.375z"/>
	<path fill-rule="evenodd" clip-rule="evenodd" fill="#B78B4B" d="M270.368,258.81c-0.025,1.879-0.331,3.523-2.414,3.978
		c-3.118,0.684-4.391-1.387-5.057-3.871c-2.801-10.437-5.564-32.884-8.251-43.352c-1.133-4.418-2.086-8.888-3.046-13.352
		c-0.551-2.557-1.595-5.503,2.294-6.354c3.61-0.791,6.217,0.681,7.032,4.374c1.137,5.147,1.975,10.366,3.027,15.536
		C266.06,226.121,268.227,248.464,270.368,258.81z"/>
	<path fill-rule="evenodd" clip-rule="evenodd" fill="#B78B4B" d="M282.352,257.785c0.014,2.952-0.333,5.221-3.156,5.413
		c-3.121,0.212-4.015-2.294-4.417-4.704c-1.846-11.103-3.574-34.223-5.328-45.34c-0.599-3.78-1.173-7.569-1.715-11.36
		c-0.396-2.757-0.534-5.478,3.187-6.012c3.317-0.48,5.677,0.619,6.179,4.275c0.814,5.93,1.982,11.843,2.32,17.804
		C279.965,227.438,280.644,248.981,282.352,257.785z"/>
	<path fill-rule="evenodd" clip-rule="evenodd" fill="#7A5C2C" d="M243.769,189.772c-4.859-1.52-10.346-1.871-14.362-5.902
		c-2.542-2.551-3.971-5.457-3.08-9.116c0.401-1.643,0.948-3.338,2.855-3.848c1.938-0.517,3.356,0.533,4.2,2.072
		c2.906,5.303,7.536,8.651,12.613,11.561c1.446,0.828,3.218,1.733,2.339,3.845C247.506,190.377,245.6,189.915,243.769,189.772z"/>
</g>
<g>
	<path fill="#7A5C2C" d="M179.344,261.835c4.47-1.051,8.907-1.331,13.311-0.838c4.404,0.492,8.594,1.463,12.573,2.909
		c3.976,1.447,7.674,3.534,11.092,6.261c3.418,2.729,6.36,5.768,8.825,9.121c2.465,3.353,4.389,7.166,5.769,11.438
		c1.314,4.339,1.906,8.842,1.775,13.509c-0.133,5.588-1.578,10.518-4.339,14.791c-2.76,4.273-6.574,7.725-11.438,10.353
		c-10.255,5.587-21.791,6.64-34.61,3.156c-0.724-0.197-1.316-0.593-1.775-1.184c-0.264,0.855-0.789,1.544-1.578,2.071
		c-0.789,0.524-1.644,0.723-2.563,0.591c-0.986-0.197-1.775-0.708-2.367-1.528c-0.591-0.82-0.823-1.725-0.69-2.712
		c0.592-3.352,0.969-7.081,1.134-11.191c0.164-4.106,0.229-7.888,0.198-11.34c-0.034-3.45-0.017-7.377,0.049-11.783
		c0.197-4.798,0.197-9.925,0-15.382c-0.198-5.455-0.789-10.386-1.775-14.791c-0.198-0.986-0.034-1.906,0.493-2.761
		c0.525-0.854,1.282-1.38,2.268-1.578c1.314-0.262,2.432,0.066,3.353,0.986C179.179,261.869,179.278,261.835,179.344,261.835z
		 M181.021,268.935c0.854,5.785,1.183,14.692,0.986,26.722c-0.066,3.615-0.083,6.919-0.05,9.909c0.032,2.992,0,6.377-0.099,10.156
		c-0.099,3.781-0.313,7.183-0.641,10.206c0.92-0.593,1.938-0.756,3.057-0.494c10.911,3.024,20.608,2.236,29.088-2.366
		c7.822-4.271,11.833-10.614,12.03-19.03c0.131-5.652-1.052-10.96-3.549-15.925c-2.499-4.962-5.803-9.021-9.91-12.177
		c-4.109-3.156-8.908-5.406-14.396-6.754C192.047,267.834,186.542,267.751,181.021,268.935z"/>
	<path fill="#7A5C2C" d="M265.917,280.767c0.723-0.262,1.479-0.296,2.268-0.099c0.197,0.066,0.789,0.214,1.775,0.444
		c0.986,0.231,1.972,0.478,2.958,0.739c0.986,0.264,1.807,0.592,2.465,0.986c3.353,1.644,6.228,3.813,8.628,6.508
		c2.399,2.696,4.125,5.555,5.177,8.578c1.051,3.024,1.659,6.212,1.824,9.564c0.163,3.353-0.28,6.508-1.331,9.466
		c-1.38,4.275-3.616,7.873-6.705,10.798c-3.091,2.925-7.001,4.913-11.734,5.965c-4.668,1.117-10.057,0.724-16.171-1.183
		c-7.888-2.432-13.212-6.837-15.974-13.212c-2.499-5.721-2.696-12.556-0.591-20.511c1.906-7.033,5.423-12.094,10.55-15.185
		C253.723,280.801,259.343,279.847,265.917,280.767z M265.818,288.162c-5.26-0.92-9.564-0.361-12.917,1.677
		c-3.485,2.104-5.916,5.752-7.297,10.944c-1.71,6.311-1.644,11.537,0.197,15.679c1.839,4.337,5.652,7.396,11.438,9.17
		c6.705,2.038,12.242,1.922,16.614-0.346c4.371-2.269,7.312-5.783,8.825-10.55c1.512-4.766,1.363-9.58-0.443-14.446
		c-1.81-4.863-5.145-8.512-10.009-10.944c-0.461-0.198-2.006-0.624-4.634-1.282C267.002,288.261,266.41,288.294,265.818,288.162z"/>
	<path fill="#7A5C2C" d="M331.883,294.275c-0.791-2.234-1.908-3.845-3.354-4.832c-1.514-0.986-3.648-1.643-6.41-1.972
		c-4.602-0.592-8.842,0.724-12.719,3.944c-3.881,3.222-6.674,7.395-8.383,12.523c-1.643,5.062-1.773,9.564-0.395,13.509
		c1.512,4.076,4.537,6.705,9.072,7.887c4.996,1.382,10.518,1.744,16.566,1.086c1.906-0.197,3.846-0.789,5.816-1.775
		c1.973-1.05,3.6-2.087,4.881-3.105c1.283-1.019,3.139-2.579,5.572-4.685c0.723-0.656,1.594-0.952,2.613-0.888
		c1.018,0.067,1.855,0.479,2.514,1.233c0.656,0.756,0.953,1.644,0.889,2.662c-0.066,1.02-0.494,1.858-1.283,2.515l-4.24,3.647
		c-0.854,0.725-2.283,1.793-4.289,3.205c-2.006,1.415-3.943,2.449-5.816,3.106c-1.875,0.656-3.832,1.116-5.867,1.38
		c-6.902,0.724-13.346,0.296-19.326-1.281c-6.969-1.906-11.604-6.08-13.904-12.522c-1.972-5.522-1.873-11.602,0.297-18.242
		c0.985-2.958,2.366-5.784,4.141-8.48c1.775-2.694,3.877-5.11,6.311-7.247c2.432-2.136,5.242-3.73,8.43-4.782
		c3.189-1.051,6.492-1.38,9.91-0.986c4.01,0.527,7.23,1.578,9.664,3.156c2.76,1.907,4.832,4.701,6.211,8.381
		c0.328,0.986,0.279,1.94-0.146,2.859c-0.43,0.921-1.119,1.545-2.07,1.874c-0.955,0.33-1.893,0.28-2.811-0.148
		C332.834,295.87,332.209,295.197,331.883,294.275z"/>
	<path fill="#7A5C2C" d="M359.393,317.743c1.576,2.828,3.613,4.997,6.113,6.509c0.328,0.196,1.182,0.46,2.564,0.787
		c0.523,0.133,1.215,0.281,2.068,0.445c0.855,0.164,1.348,0.28,1.48,0.345c4.6,0.854,8.496,1.02,11.684,0.493
		c3.189-0.526,7.051-1.84,11.586-3.944c0.92-0.459,1.857-0.526,2.811-0.197s1.643,0.954,2.072,1.874
		c0.426,0.92,0.475,1.858,0.146,2.81c-0.33,0.954-0.953,1.628-1.873,2.021c-2.564,1.249-4.881,2.235-6.951,2.958
		c-2.072,0.723-4.24,1.282-6.508,1.677c-2.27,0.394-4.586,0.541-6.953,0.442c-2.365-0.098-4.896-0.442-7.592-1.034
		c-0.133,0-0.656-0.099-1.578-0.296l-2.168-0.494c-2.105-0.523-3.617-1.05-4.537-1.576c-3.682-2.234-6.639-5.406-8.873-9.516
		c-2.236-4.107-3.518-8.365-3.846-12.77c-0.33-4.403,0.328-8.775,1.971-13.114c1.645-4.339,4.207-7.854,7.691-10.551
		c2.826-2.169,6.459-3.697,10.896-4.585c4.438-0.887,8.691-0.969,12.77-0.247c4.797,0.855,8.512,2.696,11.143,5.522
		c3.219,3.352,4.469,7.626,3.746,12.818c-1.316,8.809-7.066,14.659-17.256,17.552C374.74,317.186,367.871,317.875,359.393,317.743z
		 M356.928,310.447c9.201,0.197,16.234-0.396,21.1-1.775c7.164-2.037,11.143-5.882,11.932-11.537
		c0.459-2.892-0.133-5.159-1.775-6.804c-1.512-1.642-3.861-2.744-7.049-3.303c-3.189-0.558-6.51-0.509-9.959,0.148
		c-3.451,0.658-6.098,1.709-7.939,3.155c-2.826,2.169-4.781,5.096-5.865,8.776c-1.086,3.682-1.299,7.461-0.643,11.34h0.1H356.928z"
		/>
</g>
<g>
	<path fill-rule="evenodd" clip-rule="evenodd" fill="#B78B4B" d="M333.521,369.155c-0.601-0.299-1.371-0.492-2.312-0.578
		c-0.557,0.686-1.262,0.985-2.118,0.898c-0.3-0.042-0.62-0.106-0.963-0.192c-0.043,0-0.15-0.021-0.321-0.064
		c-0.172-0.042-0.3-0.063-0.385-0.063c-0.129-0.043-0.215-0.064-0.257-0.064c-0.172,0.086-0.343,0.278-0.514,0.578
		c-0.128,0.214-0.225,0.407-0.289,0.577c-0.063,0.172-0.075,0.279-0.032,0.321v0.064c0.043,0.128,0.214,0.3,0.514,0.514
		c1.069,0.642,2.418,0.941,4.045,0.898c0.643,0,1.209-0.074,1.701-0.225c0.492-0.149,0.855-0.31,1.092-0.481
		c0.234-0.171,0.428-0.354,0.578-0.546c0.148-0.192,0.245-0.342,0.289-0.449c0.041-0.106,0.063-0.182,0.063-0.225
		C334.569,369.819,334.205,369.498,333.521,369.155z"/>
	<path fill-rule="evenodd" clip-rule="evenodd" fill="#B78B4B" d="M365.396,386.778c-2.932-1.434-6.045-1.894-9.341-1.38
		c-1.584,0.214-3.028,0.685-4.333,1.412c-1.307,0.729-2.473,1.701-3.5,2.921s-1.756,2.825-2.183,4.815
		c-0.429,1.99-0.472,4.248-0.128,6.773c0.128,1.155,0.599,2.462,1.412,3.916c0.812,1.456,1.646,2.482,2.504,3.082
		c2.696,1.884,5.906,2.161,9.631,0.834c1.711-0.642,3.283-1.551,4.719-2.729c1.434-1.177,2.535-2.514,3.306-4.013
		c0.042-0.042,0.149-0.577,0.321-1.604c0.213-1.712,0.855-2.932,1.926-3.66c0.6-0.385,1.221-0.556,1.861-0.514
		c-0.385-2.439-0.6-3.766-0.641-3.98C370.18,390.171,368.328,388.213,365.396,386.778z"/>
	<path fill-rule="evenodd" clip-rule="evenodd" fill="#B78B4B" d="M272.113,386.778c-2.933-1.434-6.046-1.894-9.342-1.38
		c-1.584,0.214-3.028,0.685-4.333,1.412c-1.307,0.729-2.472,1.701-3.499,2.921s-1.756,2.825-2.184,4.815s-0.471,4.248-0.128,6.773
		c0.128,1.155,0.599,2.462,1.412,3.916c0.812,1.456,1.647,2.482,2.504,3.082c2.696,1.884,5.907,2.161,9.631,0.834
		c1.711-0.642,3.284-1.551,4.719-2.729c1.434-1.177,2.536-2.514,3.306-4.013c0.043-0.042,0.149-0.577,0.321-1.604
		c0.214-1.712,0.855-2.932,1.926-3.66c0.6-0.385,1.221-0.556,1.862-0.514c-0.386-2.439-0.6-3.766-0.642-3.98
		C276.896,390.171,275.044,388.213,272.113,386.778z"/>
	<path fill-rule="evenodd" clip-rule="evenodd" fill="#B78B4B" d="M479.045,353.515c-6.285-2.576-9.949-7.855-9.555-13.76
		c0.274-4.107,3.338-7.34,7.277-7.549c3.001-0.158,5.338,1.023,5.982,4.113c0.657,3.152-2.001,3.338-4.057,3.861
		c-3.338,0.852-5.758,2.609-4.413,6.34c1.267,3.516,4.205,4.441,7.778,3.354c5.531-1.682,8.457-5.652,8.43-11.533
		c-0.03-6.395-3.228-10.783-9.568-12.316c-2.729-0.658-3.943-1-2.97-4.393c1.557-5.426-0.479-9.088-5.618-11.891
		c-2.183-1.191-4.374-2.271-4.408-5.547c2.317,1.334,4.212,3.643,6.881,1.605c1.596-1.219,2.235-3.033,1.684-4.912
		c-0.803-2.727-3.17-3.115-5.618-3.16c-1.979-0.035-4.64,1.125-3.747-2.951c2.764-12.635,2.784-25.492,2.307-38.312
		c-0.994-26.711-7.842-52.02-20.064-75.695c-12.473-24.159-29.875-44.394-51.418-61.021c-2.053-1.584-3.388-3.266-3.594-6.143
		c-0.528-7.337-5.834-10.693-12.977-8.47c-1.614,0.503-3.064,1.235-4.758,0.315c-12.626-6.858-25.742-12.53-39.64-16.304
		c-2.423-0.657-3.462-1.787-1.565-4.242c3.234-4.189,3.318-8.652,0.258-12.939c-3.018-4.226-8.282-5.665-13.812-3.879
		c-1.864,0.603-2.829,0.922-3.521-1.586c-3.353-12.165-10.062-15.994-22.338-13.011c-2.441,0.594-4.818,1.257-7.469-1.663
		c4.377,0.628,7.87-0.223,7.365-4.593c-0.474-4.092-3.416-5.865-7.728-4.501c-0.887,0.28-2.011,0.227-2.915-0.041
		c-3.618-1.068-6.535-0.16-7.617,3.491c-1.25,4.218,2.129,5.329,5.876,6.389c-2.716,2.269-4.869,1.535-7.166,0.849
		c-10.124-3.027-17.829,0.897-21.021,10.995c-1.044,3.306-2.274,4.118-5.67,3.118c-4.829-1.423-8.891,0.698-11.875,4.47
		c-3.004,3.796-3.236,8.189-0.452,12.09c2.522,3.534,0.96,4.445-2.231,5.365c-13.011,3.751-25.506,8.789-37.246,15.569
		c-2.314,1.336-4.203,0.938-6.559,0.072c-6.34-2.331-11.686,0.979-12.081,7.561c-0.19,3.182-1.429,5.146-3.87,7.014
		c-9.676,7.403-18.559,15.632-26.484,24.958c-36.254,42.666-50.678,91.708-43.285,147.156c0.525,3.936,1.328,6.857-4.532,6.102
		c-3.078-0.396-4.921,2.012-4.405,5.25c0.387,2.439,2.078,3.812,4.675,3.367c2.133-0.365,2.927-2.305,3.899-4.016
		c0.754,3.861-1.338,5.824-4.367,7.299c-4.452,2.164-7.02,6.666-5.63,11.414c1.036,3.541,0.249,4.266-3.165,4.875
		c-5.873,1.045-9.231,6.318-9.16,13.148c0.056,5.262,3.166,9.238,8.31,10.471c3.356,0.805,6.586,0.641,7.752-3.291
		c1.13-3.807-1.419-5.465-4.64-6.295c-2.014-0.52-4.16-0.922-3.656-3.703c0.469-2.592,2.247-4.012,4.856-4.273
		c4.183-0.418,8.313,3.504,8.498,8.01c0.232,5.68-3.624,10.918-9.995,13.57c-13.85,5.77-22.348,18.225-21.655,31.74
		c0.757,14.771,10.396,26.928,24.392,31.633c6.227,2.094,12.436,1.959,18.752,1.709c3.24-0.127,4.914,0.707,3.295,4.307
		c-1.76,3.91-1.834,8.092-1.622,12.275c0.534,10.564,8.931,20.377,18.348,21.492c13.558,1.607,21.977-3.568,25.833-15.754
		c0.748-2.363,1.629-4.756,2.887-6.875c4.879-8.223,16.586-11.104,23.93-6.041c4.109,2.832,6.575,9.211,5.312,13.588
		c-1.36,4.713-4.552,7.535-9.321,7.729c-5.869,0.236-7.316-4.062-7.992-8.912c-0.249-1.781-1.485-3.135-3.5-2.762
		c-1.887,0.352-2.591,1.91-2.795,3.701c-0.506,4.459,2.993,9.758,7.475,11.309c7.373,2.553,13.697,0.422,18.617-6.578
		c1.425-2.027,2.282-3.168,5.057-1.67c5.85,3.16,8.778,2.508,13.83-2.166c1.61-1.488,3.21-2.898,5.668-2.178
		c0.059,0.949-0.67,1.096-1.205,1.381c-1.758,0.936-2.271,2.422-1.678,4.209c0.582,1.748,1.988,2.633,3.793,2.783
		c1.904,0.158,3.139-0.91,4.004-2.461c1.697-3.045,0.111-6.701-3.387-8.066c-1.341-0.525-3.424,0.207-4.232-2.945
		c9.703,3.043,18.766,5.885,28.012,8.785c-6.849,5.947-7.098,14.557-0.196,15.828c6.503,1.197,9.782,4.059,13.677,9.025
		c6.006,7.66,15.255,4.705,20.34-5.916c1.982,6.9,7.266,2.191,10.973,3.365c1.878,0.596,2.561-2.4,1.777-4.799
		c1.943,0.93,2.037,2.414,2.514,3.59c2.006,4.959,5.295,8.131,10.953,7.725c5.446-0.391,9.584-2.936,11.195-8.381
		c0.879-2.965,2.353-3.777,5.412-3.574c5.724,0.383,9.039-2.213,9.945-6.928c0.831-4.326-1.084-7.34-5.553-9.896
		c9.947-2.971,18.926-5.652,27.904-8.332c-0.752,2.695-2.445,1.957-3.818,2.41c-2.386,0.785-3.475,2.438-3.6,4.84
		c-0.109,2.111,0.296,4.121,2.31,5.166c2.396,1.242,4.793,0.84,5.964-1.688c1.764-3.805-1.472-4.703-4.499-5.783
		c3.513-1.441,5.479,0.189,7.479,2.107c3.492,3.352,7.669,5.381,12.197,2.695c3.885-2.301,5.438-1.148,7.604,2.305
		c3.218,5.129,8.581,6.611,14.429,5.928c5.103-0.596,8.635-3.299,9.992-8.436c0.687-2.596,1.764-5.777-1.673-6.824
		c-3.708-1.129-4.22,2.244-4.712,4.875c-0.739,3.941-2.761,6.359-7.004,6.391c-5.083,0.039-9.41-4.102-9.863-9.424
		c-0.732-8.621,6.933-15.971,15.578-14.539c9.103,1.506,14.766,6.93,17.139,15.959c3.783,14.389,17.616,18.551,29.807,13.799
		c11.592-4.52,16.99-17.998,12.979-30.475c-2.055-6.395-1.733-6.793,4.926-6.109c17.21,1.77,34.137-8.457,38.834-23.459
		C504.516,377.255,496.721,360.761,479.045,353.515z M468.27,319.112c-2.4-0.1-4.129-1.041-3.16-3.668
		c0.893-2.42,3.139-2.838,5.439-2.111c4.243,1.34,5.875,6.35,3.146,10.25c-1.406,2.012-3.386,3.637-5.172,5.369
		c-5.957,5.777-7.114,12.707-2.753,19.814c1.907,3.107,1.464,4.199-2.005,4.947c-4.674,1.008-8.522,3.676-11.847,7.049
		c-1.7,1.727-3.458,3.146-5.87,2.781c-3.453,0.133-4.697-0.885-2.675-4.051c6.651-10.42,11.695-21.613,15.844-33.23
		c0.921-2.578,1.87-4.889,5.128-2.18c0.693,0.576,1.86,0.736,2.826,0.793c1.96,0.113,3.826-0.383,4.125-2.662
		C471.564,320.167,470.227,319.194,468.27,319.112z M314.675,79.961c2.903-4.479,6.177-8.357,12.381-7.339
		c3.784,0.621,6.044,3.819,4.901,7.135c-0.525,1.525-1.516,2.661-3.226,2.678c-1.708,0.016-2.149-1.26-2.301-2.7
		c-0.284-2.702-1.073-5.049-4.441-4.787c-2.444,0.19-3.626,2.373-3.586,6.176c0.091,1.251,0.867,2.823-1.053,3.307
		c-1.482,0.374-3.28,0.288-4.223-0.879C311.75,81.844,313.953,81.075,314.675,79.961z M295.554,66.802
		c0.671-7.262,3.376-10.208,9.084-9.917c5.181,0.264,9.684,5.546,9.687,11.363c0.008,10.308-11.523,17.436-21.206,13.17
		c-2.119-0.934-2.274-2.115-1.062-3.852C294.311,74.337,295.197,70.656,295.554,66.802z M282.828,58.869
		c-0.445-0.896-1.052-1.959,0.145-2.608c1.878-1.018,3.82-2.192,6.055-0.753c0.771,0.496,2.087,0.338,2.051,1.759
		c-0.553,1.224-1.218,2.396-1.631,3.651c-0.885,2.685-2.004,5.438,0.801,7.78c3.718,3.104-0.072,4.879-1.402,6.892
		c-1.41,2.132-3.32,1.433-4.454-0.323c-1.275-1.975-5.193-3.371-1.542-6.789C286.028,65.501,284.42,62.08,282.828,58.869z
		 M263.733,58.756c5.821-4.278,12.3-1.758,13.515,5.378c0.811,4.76,1.224,9.593,3.858,13.838c1.217,1.96,0.478,3.178-1.635,3.604
		c-2.117,0.428-4.265,0.709-5.79,0.957c-6.761,0.015-12.375-4.466-14.509-11.081C257.643,66.71,259.341,61.985,263.733,58.756z
		 M240.871,78.121c0.309-3.231,2.326-5.018,5.498-5.53c0.82-0.133,1.641-0.257,2.141-0.334c3.502,0.094,12.32,7.517,12.405,10.25
		c0.054,1.738-1.549,1.47-2.532,1.728c-1.742,0.458-3.432,0.39-3.7-1.982c-0.169-1.483-0.046-3.012-0.313-4.472
		c-0.34-1.852-1.619-2.891-3.527-2.901c-1.672-0.009-2.814,0.869-3.379,2.458c-0.744,2.096,0.25,5.692-3.834,4.991
		C241.58,81.975,240.684,80.089,240.871,78.121z M145.443,160.388c25.955-34.768,60.064-57.642,102.306-66.803
		c56.335-12.218,107.444,0.184,152.013,37.113c30.684,25.425,50.333,58.001,58.752,96.855c6.901,31.85,5.232,63.488-5.54,94.531
		c-4.286,12.352-9.764,24.041-16.454,35.215c-0.513,0.857-1.015,1.727-1.594,2.539c-1.246,1.748-2.819,4.514-4.896,3.176
		c-2.165-1.395,0.535-3.482,1.434-4.896c9.27-14.584,16.52-30.096,21.014-46.77c7.309-27.115,8.297-54.41,2.43-82.039
		c-6.983-32.879-22.116-61.383-45.721-85.03c-31.367-31.42-69.318-48.711-114.022-50.776
		c-44.976-2.077-84.995,11.044-119.286,39.876c-33.836,28.452-54.082,64.987-59.725,109.12c-3.965,31.02-0.143,61.107,12.001,89.998
		c3.61,8.59,7.964,16.838,13.026,24.689c1.152,1.787,2.54,3.49,2.961,5.945c-2.98,0.904-4.133-0.838-5.221-2.529
		c-12.121-18.834-20.652-39.104-24.638-61.225c-1.979-10.988-3.866-21.975-3.732-33.191
		C111.015,227.239,122.014,191.774,145.443,160.388z M103.289,327.704c-3.244-2.541-5.531-5.396-4.555-9.721
		c0.803-3.553,3.035-5.492,6.883-4.814c1.699,0.299,2.515,1.51,2.585,3.197c0.065,1.561-0.606,2.627-2.269,2.637
		c-2.467,0.012-4.719,0.727-4.094,3.566c0.671,3.043,3.984,3.131,5.721,2.025c6.034-3.842,6.35,0.967,7.646,4.529
		c3.874,10.639,8.647,20.85,14.518,30.539c0.58,0.959,1.857,1.799,1.274,3.035c-0.743,1.578-2.427,0.453-3.103,0.783
		c-2.805,0.258-4.695-0.375-6.293-2.172c-3.615-4.07-7.92-7.041-13.455-7.928c-2.336-0.375-3.08-1.111-1.412-3.564
		C112.555,341.257,111.385,334.046,103.289,327.704z M130.652,392.149c-0.831,2.209-1.262,6.139-4.68,5.254
		c-3.42-0.885-5.422-0.275-7.28,2.57c1.21-5.752,5.833-9.055,8.126-13.787c0.103-0.211,1.077-0.316,1.271-0.113
		C129.719,387.772,131.55,389.765,130.652,392.149z M116.849,413.546c-0.999-0.01-1.999-0.002-2.999-0.002
		c-15.536-0.174-30.031-11.863-32.881-26.459c-2.299-11.775,6.76-25.014,18.395-26.883c11.279-1.811,21.296,6.332,20.979,17.055
		c-0.15,5.092-3.283,9.678-7.857,11.057c-4.586,1.381-7.988-0.512-10.877-4.119c-3.227-4.029-7.579-4.635-10.86-1.857
		c-3.231,2.736-3.093,7.064,0.579,10.988c5.539,5.922,12.227,8.639,20.285,6.25c2.876-0.854,4.789-0.877,5.517,2.555
		c0.245,1.156,1.425,1.742,2.259,2.547c1.195,1.154,5.046-0.908,3.836,2.846C122.259,410.513,120.896,413.583,116.849,413.546z
		 M148.178,450.526c-10.119,5.246-22.452-1.1-25.551-13.014c-0.501-1.926-0.864-3.922-0.979-5.904
		c-0.598-10.4,1.547-12.666,11.785-12.67c4.466-0.002,8.932,0,13.398,0c0.055,0.455,0.11,0.908,0.166,1.363
		c-2.651,0.771-5.487,0.807-8.057,1.986c-5.551,2.545-8.059,6.578-7.834,13.176c0.203,6.008,2.826,9.391,8.455,11.676
		c3.846,1.562,6.816-0.043,9.702-2.072c1.682-1.184,1.995-3.074,1.155-4.939c-0.897-1.992-2.648-2.484-4.609-1.904
		c-3.17,0.938-6.256,1.762-8.328-1.891c-1.62-2.855-1.085-5.619,1.103-7.789c2.752-2.73,6.054-3.98,10.013-2.424
		c5.114,2.01,7.473,5.822,7.694,11.16C156.551,443.513,153.416,447.812,148.178,450.526z M207.18,441.54
		c-3.912,0.486-6.982-1.355-8.566-4.734c-2.177-4.637-4.084-9.359-9.468-13.387c5.78-0.779,8.64,1.598,11.489,3.756
		c1.726,1.309,0.07,2.689-0.414,3.977c-1,2.654-1.635,5.457,1.479,6.918c2.884,1.352,4.133-0.914,4.988-3.277
		c0.545-1.502,1.656-2.035,3.154-1.58c1.449,0.441,2.17,1.625,2.169,3.025C212.01,439.394,210.17,441.169,207.18,441.54z
		 M206.274,380.583c2.14-0.085,4.162,0.321,6.067,1.22c1.903,0.898,3.499,2.247,4.782,4.045c0.214-0.343,0.471-0.663,0.771-0.963
		c2.097-2.312,4.708-3.83,7.833-4.559c3.124-0.728,6.205-0.535,9.245,0.578c3.038,1.113,5.414,3.061,7.126,5.842
		c1.113,1.841,1.937,3.906,2.472,6.195c0.535,2.29,0.792,4.687,0.771,7.19s-0.139,4.709-0.353,6.613
		c-0.215,1.905-0.536,3.991-0.963,6.26c-0.087,0.642-0.396,1.145-0.932,1.509c-0.535,0.363-1.134,0.491-1.797,0.385
		c-0.664-0.107-1.178-0.428-1.541-0.963c-0.364-0.534-0.481-1.145-0.354-1.83c1.883-10.57,1.413-18.211-1.412-22.92
		c-1.07-1.797-2.633-3.081-4.687-3.852c-2.098-0.771-4.237-0.909-6.421-0.418c-2.183,0.493-4.023,1.553-5.521,3.179
		c-0.172,0.171-0.321,0.332-0.45,0.481c-0.128,0.15-0.246,0.321-0.353,0.514c-0.107,0.192-0.183,0.332-0.225,0.417
		c-0.044,0.086-0.107,0.257-0.193,0.514s-0.139,0.429-0.16,0.514c-0.022,0.086-0.086,0.311-0.192,0.674
		c-0.107,0.364-0.183,0.632-0.225,0.803c0.214,1.113,0.374,2.333,0.481,3.659c0.106,1.327,0.17,2.451,0.192,3.371
		c0.021,0.921-0.022,2.193-0.128,3.82c-0.107,1.627-0.183,2.718-0.226,3.273c-0.043,0.558-0.16,1.766-0.353,3.628
		c-0.192,1.861-0.289,2.9-0.289,3.113c-0.086,0.643-0.375,1.166-0.867,1.573c-0.492,0.406-1.07,0.578-1.733,0.514
		c-0.664-0.064-1.198-0.343-1.604-0.835c-0.407-0.491-0.589-1.08-0.546-1.766c0.042-0.257,0.149-1.229,0.321-2.921
		c0.17-1.69,0.277-2.781,0.32-3.274c0.043-0.491,0.106-1.444,0.193-2.856c0.085-1.413,0.128-2.493,0.128-3.242
		s-0.021-1.67-0.064-2.761c-0.043-1.092-0.128-2.087-0.257-2.985c-0.642-0.685-0.813-1.455-0.513-2.312v-0.128l-0.064-0.321
		c-0.557-2.14-1.573-3.724-3.05-4.751s-3.2-1.519-5.168-1.477c-1.97,0.043-3.874,0.609-5.714,1.701
		c-1.841,1.092-3.274,2.536-4.302,4.334c-0.129,0.257-0.3,0.471-0.514,0.642c0.428,11.813,0.642,18.769,0.642,20.865
		c0,0.643-0.235,1.198-0.706,1.67c-0.472,0.47-1.027,0.706-1.669,0.706c-0.643,0-1.199-0.236-1.669-0.706
		c-0.472-0.472-0.707-1.027-0.707-1.67c0-3.424-0.139-8.549-0.417-15.376c-0.278-6.826-0.417-11.951-0.417-15.376
		c0-0.643,0.234-1.198,0.706-1.67c0.471-0.47,1.027-0.706,1.669-0.706c0.643,0,1.198,0.236,1.67,0.706
		c0.47,0.472,0.706,1.027,0.706,1.67v2.696C198.698,382.082,202.251,380.669,206.274,380.583z M281.391,400.036
		c0.085,0.385,0.192,1.049,0.32,1.99c0.129,0.729,0.235,1.242,0.321,1.541c0.514,2.012,0.984,3.338,1.412,3.98
		c0.471,0.685,1.455,1.455,2.954,2.311c0.556,0.344,0.919,0.825,1.091,1.445c0.171,0.621,0.085,1.22-0.257,1.797
		c-0.343,0.578-0.824,0.952-1.444,1.124c-0.621,0.171-1.23,0.085-1.83-0.257c-2.098-1.241-3.574-2.504-4.43-3.788
		c-0.686-0.984-1.284-2.417-1.798-4.302c-1.155,1.713-2.6,3.242-4.333,4.591s-3.606,2.387-5.618,3.114
		c-2.098,0.898-4.43,1.252-6.998,1.059c-2.568-0.192-4.879-1.016-6.934-2.472c-1.456-0.984-2.751-2.492-3.884-4.526
		c-1.135-2.032-1.83-3.926-2.087-5.682c-0.386-3.167-0.279-6.056,0.321-8.667c0.599-2.61,1.583-4.761,2.953-6.452
		c1.369-1.69,2.985-3.06,4.847-4.109c1.862-1.048,3.885-1.723,6.067-2.022c2.696-0.427,5.414-0.32,8.153,0.321
		s5.222,1.862,7.448,3.659c2.225,1.798,3.724,3.98,4.494,6.549c0.17,0.514,0.31,1.081,0.417,1.701
		c0.106,0.621,0.214,1.284,0.321,1.99c0.105,0.706,0.16,1.167,0.16,1.381c0.128,0.642,0,1.23-0.386,1.766
		c-0.385,0.535-0.898,0.846-1.54,0.931v0.064C281.219,399.33,281.304,399.65,281.391,400.036z M343.826,423.618
		c-38.718,13.684-76.104,13.176-113.5,0.057C236.015,422.562,338.396,422.681,343.826,423.618z M291.213,392.781
		c-0.344-3.252-0.899-6.484-1.67-9.694c-0.171-0.643-0.086-1.241,0.257-1.798c0.343-0.556,0.835-0.92,1.477-1.092
		c0.643-0.17,1.241-0.085,1.798,0.257c0.556,0.344,0.92,0.835,1.092,1.477l0.385,1.733c0.257-0.299,0.514-0.556,0.771-0.77
		c1.326-1.284,2.878-2.193,4.655-2.729c1.775-0.534,3.509-0.727,5.2-0.577c1.69,0.15,3.392,0.524,5.104,1.123
		c2.439,0.899,4.676,2.215,6.709,3.948c2.032,1.734,3.52,3.671,4.462,5.811c2.61,6.078,2.974,13.697,1.091,22.856
		c-0.128,0.642-0.471,1.133-1.027,1.477c-0.557,0.342-1.155,0.449-1.797,0.32c-0.643-0.128-1.135-0.471-1.477-1.027
		c-0.344-0.556-0.449-1.155-0.321-1.797c1.626-8.175,1.349-14.809-0.835-19.903c-0.642-1.454-1.733-2.846-3.273-4.173
		c-1.541-1.326-3.275-2.332-5.201-3.018c-1.926-0.727-3.787-0.995-5.586-0.802c-1.797,0.192-3.296,0.845-4.494,1.958
		c-0.3,0.3-0.577,0.6-0.834,0.898l-0.899,1.22c-0.385,0.472-0.749,0.899-1.091,1.284c0,0.043-0.022,0.064-0.064,0.064
		c1.326,9.759,0.642,17.783-2.055,24.075c-0.257,0.6-0.685,1.017-1.284,1.252s-1.209,0.225-1.829-0.032
		c-0.621-0.257-1.05-0.685-1.284-1.283c-0.236-0.6-0.225-1.221,0.032-1.862c1.112-2.568,1.808-5.596,2.086-9.085
		C291.587,399.405,291.555,396.034,291.213,392.781z M331.018,376.795c-2.568,0.086-4.795-0.449-6.678-1.605
		c-1.326-0.855-2.183-1.926-2.568-3.21c-0.427-1.497-0.17-3.081,0.771-4.751c0.855-1.412,1.968-2.332,3.338-2.761
		c0.428-0.385,0.92-0.599,1.477-0.642c3.252-0.299,5.98,0.043,8.186,1.027c2.204,0.985,3.456,2.525,3.756,4.622
		c0.299,2.055-0.396,3.768-2.086,5.137C335.521,375.982,333.457,376.71,331.018,376.795z M334.099,412.812
		c0.042,0.642-0.14,1.22-0.546,1.733c-0.407,0.514-0.931,0.802-1.572,0.866c-0.643,0.064-1.221-0.107-1.734-0.514
		c-0.514-0.407-0.812-0.931-0.898-1.572c-0.428-4.023-0.706-9.117-0.834-15.28c-0.172-8.773-0.301-13.761-0.386-14.959
		c-0.043-0.685,0.161-1.262,0.61-1.733c0.449-0.471,1.005-0.728,1.669-0.771c0.663-0.042,1.229,0.16,1.701,0.609
		c0.471,0.45,0.728,0.995,0.771,1.638c0.042,1.07,0.17,6.121,0.385,15.151C333.393,403.975,333.67,408.918,334.099,412.812z
		 M277.588,459.585c-2.951-0.982-3.828,0.631-4.475,3.068c-1.384,5.223-3.738,6.902-7.883,5.98c-4.072-0.908-7.207-5.732-6.42-9.879
		c0.898-4.725,5.603-9.186,10.173-9.643c4.844-0.486,12.458,3.225,14.124,6.881C284.167,458.317,281.681,459.909,277.588,459.585z
		 M314.234,461.054c-0.363,3.98-2.26,6.918-6.5,7.654c-4.375,0.76-6.387-1.676-7.291-5.57c-0.63-2.713-1.735-4.525-5.182-3.562
		c-1.952,0.545-4.172-0.369-4.985-2.299c-0.759-1.801,1.121-2.98,2.351-3.965c3.007-2.408,6.322-4.236,8.693-4.26
		C309.329,449.104,314.803,454.841,314.234,461.054z M211.473,423.351c3.691-0.881,6.557-0.406,9.399,0.781
		c25.373,10.594,51.885,14.494,79.181,12.586c18.037-1.262,35.478-5.652,52.269-12.438c2.995-1.211,5.985-1.904,9.269-1.062
		C336.799,445.788,241.253,446.058,211.473,423.351z M380.517,413.101c-0.343,0.578-0.825,0.952-1.444,1.124
		c-0.621,0.171-1.23,0.085-1.83-0.257c-2.098-1.241-3.574-2.504-4.43-3.788c-0.686-0.984-1.284-2.417-1.798-4.302
		c-1.155,1.713-2.601,3.242-4.333,4.591c-1.734,1.349-3.607,2.387-5.618,3.114c-2.098,0.898-4.431,1.252-6.998,1.059
		c-2.568-0.192-4.88-1.016-6.935-2.472c-1.455-0.984-2.75-2.492-3.883-4.526c-1.135-2.032-1.83-3.926-2.088-5.682
		c-0.385-3.167-0.278-6.056,0.322-8.667c0.598-2.61,1.582-4.761,2.953-6.452c1.369-1.69,2.984-3.06,4.847-4.109
		c1.862-1.048,3.884-1.723,6.067-2.022c2.696-0.427,5.414-0.32,8.153,0.321s5.222,1.862,7.448,3.659
		c2.225,1.798,3.723,3.98,4.494,6.549c0.17,0.514,0.309,1.081,0.416,1.701c0.107,0.621,0.215,1.284,0.322,1.99
		c0.105,0.706,0.16,1.167,0.16,1.381c0.128,0.642,0,1.23-0.386,1.766s-0.898,0.846-1.54,0.931v0.064
		c0.084,0.257,0.17,0.577,0.256,0.963c0.086,0.385,0.193,1.049,0.321,1.99c0.128,0.729,0.235,1.242,0.321,1.541
		c0.514,2.012,0.984,3.338,1.412,3.98c0.471,0.685,1.455,1.455,2.953,2.311c0.557,0.344,0.92,0.825,1.092,1.445
		C380.943,411.925,380.858,412.523,380.517,413.101z M156.861,359.665c-0.666,0-1.414-0.199-1.986,0.033
		c-7.022,2.861-9.499-2.107-12.402-6.869c-15.02-24.627-25.205-57.414-24.166-87.209c-0.68-35.16,9.277-66.664,28.508-94.82
		c24.09-35.271,56.984-59.447,98.801-69.224c55.518-12.979,106.203-1.729,150.16,35.229c34.009,28.593,53.424,65.546,58.399,109.636
		c4.489,39.793-4.293,76.748-26.153,110.477c-1.602,2.471-2.989,4.096-6.301,2.916c-1.633-0.582-3.629-0.166-5.461-0.166
		C329.793,359.665,243.328,359.665,156.861,359.665z M436.159,451.985c-5.731,1.555-13.528-1.246-16.85-6.09
		c-3.167-4.621-3.183-11.326,0.185-15.967c2.529-3.484,5.976-5.5,10.347-4.104c3.575,1.145,6.792,2.977,6.523,7.654
		c-0.245,4.281-2.832,6.418-6.974,5.242c-2.814-0.799-5.588-1.377-6.66,1.99c-1.115,3.508,1.673,5.086,4.391,6.18
		c4.449,1.789,10.477-0.506,13.513-4.98c3.124-4.602,2.388-12.146-1.495-16.211c-3.629-3.799-8.355-4.959-13.493-5.219
		c0.106-0.488,0.212-0.979,0.317-1.467c6.791,0,13.584-0.018,20.375,0.008c2.156,0.01,3.33,1.355,3.906,3.26
		C453.827,434.14,450.011,448.228,436.159,451.985z M456.084,413.483c-3.588-0.352-4.871-3.092-5.975-5.949
		c-0.16-0.414-0.193-1.174,0.056-1.404c1.87-1.736,5.178-1.379,6.209-4.434c1.317-3.906,4.27-2.053,6.714-1.705
		c8.069,1.146,14.861-1.045,19.729-7.787c2.728-3.777,2.206-7.938-0.89-10.244c-3.123-2.326-6.889-1.57-10.051,2.014
		c-4.301,4.879-8.274,6.033-12.588,3.66c-5.113-2.814-7.822-9.432-6.145-15.01c3.203-10.658,15.67-15.848,25.963-10.811
		c8.143,3.984,13.227,12.148,13.23,21.248C493.426,398.306,475.697,415.409,456.084,413.483z"/>
</g>
</svg>
